<?xml version="1.0" encoding="UTF-8"?>
<svg version="1.1" xmlns="http://www.w3.org/2000/svg" width="474" height="352">
<path d="M0 0 C-0.33 1.32 -0.66 2.64 -1 4 C-0.175 4.37125 0.65 4.7425 1.5 5.125 C2.325 5.74375 3.15 6.3625 4 7 C4.3125 10.1875 4.3125 10.1875 4 13 C4.66 13 5.32 13 6 13 C7.85776765 16.13498292 8.20140476 18.37471432 8 22 C9.65 22.66 11.3 23.32 13 24 C13 24.66 13 25.32 13 26 C12.34 26 11.68 26 11 26 C11.33 26.598125 11.66 27.19625 12 27.8125 C13 30 13 30 13 33 C13.66 33 14.32 33 15 33 C15.268125 34.051875 15.53625 35.10375 15.8125 36.1875 C16.81130362 39.93023779 16.81130362 39.93023779 18.625 42.6875 C20 45 20 45 20 49 C20.99 49 21.98 49 23 49 C23.2165625 50.2065625 23.2165625 50.2065625 23.4375 51.4375 C23.74135249 53.92103706 23.74135249 53.92103706 25 55 C25.45459858 57.65463121 25.70243238 60.32189138 26 63 C29.5109464 62.57183581 32.53218516 61.86763993 35.75 60.4375 C39 59 39 59 41 59 C41 58.34 41 57.68 41 57 C41.94875 57.020625 42.8975 57.04125 43.875 57.0625 C46.90666283 57.22551826 46.90666283 57.22551826 49 56 C49.99 56.33 50.98 56.66 52 57 C52 56.34 52 55.68 52 55 C53.8125 54.3125 53.8125 54.3125 56 54 C57.75 55.4375 57.75 55.4375 59 57 C59.33 55.68 59.66 54.36 60 53 C61.65 53.33 63.3 53.66 65 54 C65 53.34 65 52.68 65 52 C65.9075 52.04125 66.815 52.0825 67.75 52.125 C70.97484476 52.00096751 72.24626059 51.46866102 75 50 C77.33333333 50 79.66666667 50 82 50 C82 49.34 82 48.68 82 48 C84.31 48 86.62 48 89 48 C89.33 47.34 89.66 46.68 90 46 C91.98567708 46.06510417 93.97135417 46.13020833 95.95703125 46.1953125 C98.31359719 46.13254462 98.31359719 46.13254462 101 44 C103.2265625 43.83984375 103.2265625 43.83984375 105.625 43.9375 C107.08247312 43.99174253 108.54165964 44.02033542 110 44 C110.33 43.67 110.66 43.34 111 43 C111.7425 43.04125 112.485 43.0825 113.25 43.125 C116.58172699 42.97355786 118.28433263 41.86217191 121 40 C121.99 40.66 122.98 41.32 124 42 C124.33 41.34 124.66 40.68 125 40 C127.97 40 130.94 40 134 40 C133.67 39.01 133.34 38.02 133 37 C134.485 36.505 134.485 36.505 136 36 C136 36.99 136 37.98 136 39 C137.97536745 38.65213292 137.97536745 38.65213292 140 38 C140.33 37.34 140.66 36.68 141 36 C144.3 36.33 147.6 36.66 151 37 C151 36.34 151 35.68 151 35 C151.928125 35.226875 152.85625 35.45375 153.8125 35.6875 C154.864375 35.790625 155.91625 35.89375 157 36 C158.7087646 34.62485459 158.7087646 34.62485459 160 33 C160.99 33 161.98 33 163 33 C163 33.66 163 34.32 163 35 C163.78375 34.175 164.5675 33.35 165.375 32.5 C168 30 168 30 170 30 C170 30.66 170 31.32 170 32 C170.66 32 171.32 32 172 32 C172 32.66 172 33.32 172 34 C172.66 34 173.32 34 174 34 C174.33 32.35 174.66 30.7 175 29 C175.66 29 176.32 29 177 29 C177 29.66 177 30.32 177 31 C178.03447266 30.58427734 178.03447266 30.58427734 179.08984375 30.16015625 C184.45973819 28.09027924 189.27177823 26.63285008 195.01171875 26.21484375 C197.23136269 26.04819453 197.23136269 26.04819453 200.125 24.9375 C203.52795772 23.82783987 206.44362334 23.85774493 210 24 C210 22.68 210 21.36 210 20 C211.03125 20.04125 212.0625 20.0825 213.125 20.125 C216.85599052 20.00464547 221.19558068 19.80441932 224 17 C225.66617115 16.95936168 227.33388095 16.957279 229 17 C229 16.34 229 15.68 229 15 C230.32 15 231.64 15 233 15 C233 14.01 233 13.02 233 12 C233.99 12 234.98 12 236 12 C236 12.66 236 13.32 236 14 C236.66 14 237.32 14 238 14 C238 13.01 238 12.02 238 11 C241.96 11.99 241.96 11.99 246 13 C246 13.66 246 14.32 246 15 C246.86625 15.1546875 246.86625 15.1546875 247.75 15.3125 C250.35661158 16.10896465 251.9735311 17.19065277 254 19 C254 19.66 254 20.32 254 21 C253.34 21.33 252.68 21.66 252 22 C252.33 23.32 252.66 24.64 253 26 C252.34 26 251.68 26 251 26 C250.34 28.97 249.68 31.94 249 35 C247.824375 35.1546875 247.824375 35.1546875 246.625 35.3125 C243.66954819 35.77595022 243.66954819 35.77595022 242 39 C241.34 39 240.68 39 240 39 C239.67 39.99 239.34 40.98 239 42 C237.1875 43.0625 237.1875 43.0625 235 44 C234.34 44.37125 233.68 44.7425 233 45.125 C231 46 231 46 227 46 C227.33 47.32 227.66 48.64 228 50 C227.0925 50.268125 226.185 50.53625 225.25 50.8125 C222.03932599 51.80270186 222.03932599 51.80270186 219.875 53.625 C218 55 218 55 214 55 C213.95875 55.7425 213.9175 56.485 213.875 57.25 C212.63188102 61.15694537 210.51909055 62.06795028 207 64 C205.67323492 64.35858516 204.34164079 64.7018576 203 65 C202.67 65.66 202.34 66.32 202 67 C201.4225 67.103125 200.845 67.20625 200.25 67.3125 C197.72782015 67.89061931 197.72782015 67.89061931 195.5625 70.4375 C193.01563842 72.98436158 191.31165408 73.80412492 188 75 C187.67 75.66 187.34 76.32 187 77 C184.4375 77.625 184.4375 77.625 182 78 C182 78.99 182 79.98 182 81 C180.02 81.33 178.04 81.66 176 82 C175.67 82.99 175.34 83.98 175 85 C173.35 85.33 171.7 85.66 170 86 C169.67 87.65 169.34 89.3 169 91 C168.29875 91.103125 167.5975 91.20625 166.875 91.3125 C162.05877906 92.46420501 158.77718427 93.8342236 156 98 C152.875 98.1875 152.875 98.1875 150 98 C150.33 98.99 150.66 99.98 151 101 C150.34 101.66 149.68 102.32 149 103 C147.7934375 102.9071875 147.7934375 102.9071875 146.5625 102.8125 C145.716875 102.874375 144.87125 102.93625 144 103 C143.54625 103.804375 143.0925 104.60875 142.625 105.4375 C142.08875 106.283125 141.5525 107.12875 141 108 C137.3125 108.8125 137.3125 108.8125 134 109 C134 109.66 134 110.32 134 111 C131.75 113.625 131.75 113.625 129 116 C127.68 116 126.36 116 125 116 C125 116.66 125 117.32 125 118 C124.38125 118.268125 123.7625 118.53625 123.125 118.8125 C120.7004767 119.95556848 120.7004767 119.95556848 119 123 C115.875 123.6875 115.875 123.6875 113 124 C113 124.66 113 125.32 113 126 C112.34 126 111.68 126 111 126 C111 126.66 111 127.32 111 128 C107.27034861 130.03435531 105.33094958 131 101 131 C101 131.99 101 132.98 101 134 C97.55430231 138.44606154 94.24818588 139.86517542 88.98828125 141.2265625 C86.63719001 141.92200449 86.63719001 141.92200449 85 145 C84.34 145.309375 83.68 145.61875 83 145.9375 C80.54471073 147.24187242 80.01349081 148.46627297 79 151 C78.05125 150.95875 77.1025 150.9175 76.125 150.875 C72.89755144 150.65026182 72.89755144 150.65026182 71 153 C71.66 153.99 72.32 154.98 73 156 C73.4140625 158.26171875 73.4140625 158.26171875 73.625 160.6875 C73.69976562 161.49574219 73.77453125 162.30398437 73.8515625 163.13671875 C73.90054687 163.75160156 73.94953125 164.36648437 74 165 C75.65 165.33 77.3 165.66 79 166 C78.690625 167.175625 78.690625 167.175625 78.375 168.375 C78.25125 169.24125 78.1275 170.1075 78 171 C79.84188612 173.05270463 79.84188612 173.05270463 82 174 C82.6328125 176.28515625 82.6328125 176.28515625 83.125 179.0625 C83.29257812 179.98160156 83.46015625 180.90070313 83.6328125 181.84765625 C83.75398438 182.55792969 83.87515625 183.26820313 84 184 C84.66 184 85.32 184 86 184 C89.07692308 189.41538462 89.07692308 189.41538462 88.6875 192.375 C88.3471875 193.179375 88.3471875 193.179375 88 194 C88.99 193.67 89.98 193.34 91 193 C94.4747827 195.68505936 94.91716145 198.87167803 96 203 C97.46807051 208.50687936 97.46807051 208.50687936 101.1875 212.5 C101.785625 212.665 102.38375 212.83 103 213 C102.938125 213.78375 102.87625 214.5675 102.8125 215.375 C102.874375 216.24125 102.93625 217.1075 103 218 C103.99 218.66 104.98 219.32 106 220 C107.43913922 223.59784804 108.32755582 227.18948298 109 231 C109.66 231 110.32 231 111 231 C111.38671875 231.80824219 111.7734375 232.61648437 112.171875 233.44921875 C112.69265625 234.51785156 113.2134375 235.58648437 113.75 236.6875 C114.26046875 237.74324219 114.7709375 238.79898438 115.296875 239.88671875 C116.90547966 243.04248677 116.90547966 243.04248677 119.15625 245.6875 C121.36305435 248.4553563 121.67631455 250.52038138 122 254 C122.66 254 123.32 254 124 254 C124.12375 254.721875 124.2475 255.44375 124.375 256.1875 C125.39796527 260.79084373 125.9845222 263.3230148 130 266 C130 266.66 130 267.32 130 268 C131.32 268.33 132.64 268.66 134 269 C133.773125 269.886875 133.54625 270.77375 133.3125 271.6875 C132.9419393 275.61544344 133.80284964 276.83610348 136 280 C136 280.66 136 281.32 136 282 C137.32 281.67 138.64 281.34 140 281 C140.125 286.75 140.125 286.75 139 289 C140.65 289.33 142.3 289.66 144 290 C143.67 291.98 143.34 293.96 143 296 C143.61359375 296.25007813 144.2271875 296.50015625 144.859375 296.7578125 C147.36280683 298.21053389 148.02093641 299.29006468 149.25 301.875 C149.58515625 302.55304688 149.9203125 303.23109375 150.265625 303.9296875 C151 306 151 306 151 310 C151.99 310 152.98 310 154 310 C154.71614583 311.72526042 155.43229167 313.45052083 156.1484375 315.17578125 C157.06806692 317.26533932 157.06806692 317.26533932 159 320 C159 320.99 159 321.98 159 323 C159.66 323 160.32 323 161 323 C161.12117188 323.61488281 161.24234375 324.22976563 161.3671875 324.86328125 C161.53476562 325.67152344 161.70234375 326.47976563 161.875 327.3125 C162.03742188 328.11300781 162.19984375 328.91351563 162.3671875 329.73828125 C162.94478999 332.25301118 162.94478999 332.25301118 165 335 C163.68 335.66 162.36 336.32 161 337 C161 338.65 161 340.3 161 342 C159.68 341.67 158.36 341.34 157 341 C157 342.32 157 343.64 157 345 C152.00815264 345.29363808 149.02555256 345.07836372 145 342 C144.67 341.34 144.34 340.68 144 340 C142.68 340 141.36 340 140 340 C139.34 339.34 138.68 338.68 138 338 C137.01 337.67 136.02 337.34 135 337 C135 336.34 135 335.68 135 335 C134.01 334.67 133.02 334.34 132 334 C132 333.34 132 332.68 132 332 C129 330.66666667 129 330.66666667 126 332 C125.34 331.67 124.68 331.34 124 331 C122.68 331 121.36 331 120 331 C120 330.01 120 329.02 120 328 C118.865625 327.54625 117.73125 327.0925 116.5625 326.625 C113 325 113 325 112 323 C110.35636866 322.27840576 108.68949614 321.60648579 107 321 C107 320.01 107 319.02 107 318 C105.95199219 317.85304688 105.95199219 317.85304688 104.8828125 317.703125 C103.51769531 317.47882813 103.51769531 317.47882813 102.125 317.25 C101.22007812 317.11078125 100.31515625 316.9715625 99.3828125 316.828125 C97 316 97 316 95.8359375 313.96484375 C95.56007813 313.31644531 95.28421875 312.66804688 95 312 C92.52391899 311.25475806 92.52391899 311.25475806 90 311 C89.34 310.67 88.68 310.34 88 310 C88 309.34 88 308.68 88 308 C86.865625 307.731875 85.73125 307.46375 84.5625 307.1875 C83.386875 306.795625 82.21125 306.40375 81 306 C80.67 305.01 80.34 304.02 80 303 C78.02 303 76.04 303 74 303 C73.67 302.34 73.34 301.68 73 301 C72.360625 300.87625 71.72125 300.7525 71.0625 300.625 C70.0415625 300.315625 70.0415625 300.315625 69 300 C68.7215625 299.38125 68.443125 298.7625 68.15625 298.125 C66.67520356 295.4030768 65.18529844 294.74228333 62.4375 293.375 C58.09722222 291.19444444 58.09722222 291.19444444 57 289 C57 289.66 57 290.32 57 291 C56.34 291 55.68 291 55 291 C55 290.34 55 289.68 55 289 C53.35 288.34 51.7 287.68 50 287 C50 286.01 50 285.02 50 284 C48.948125 283.896875 47.89625 283.79375 46.8125 283.6875 C42.11928323 282.84118222 39.34663231 281.34663231 36 278 C35.67 278.66 35.34 279.32 35 280 C34.01 279.67 33.02 279.34 32 279 C32 277.68 32 276.36 32 275 C28.15299368 272.91620491 24.09945571 271.50313376 20 270 C20 269.34 20 268.68 20 268 C19.278125 267.938125 18.55625 267.87625 17.8125 267.8125 C14.14320564 266.75248163 12.68272034 264.68272034 10 262 C5.4309131 259.59084509 2.13348674 258.75554825 -3 259 C-4 258 -4 258 -4.0625 255.4375 C-4.041875 254.633125 -4.02125 253.82875 -4 253 C-4.70125 252.896875 -5.4025 252.79375 -6.125 252.6875 C-10.37102199 251.67214692 -13.89882715 250.10117285 -17 247 C-17.99 247.33 -18.98 247.66 -20 248 C-20.33 247.2575 -20.66 246.515 -21 245.75 C-24.56530521 240.84770533 -30.44535271 239.08299273 -36 237 C-36 236.01 -36 235.02 -36 234 C-37.98 234.33 -39.96 234.66 -42 235 C-42 233.68 -42 232.36 -42 231 C-45.98645764 230.27256962 -45.98645764 230.27256962 -50 230 C-51.66666667 231.33333333 -51.66666667 231.33333333 -53 233 C-56.1875 233.6875 -56.1875 233.6875 -59 234 C-58.67 234.99 -58.34 235.98 -58 237 C-59.98 237 -61.96 237 -64 237 C-64 238.65 -64 240.3 -64 242 C-64.66 242.33 -65.32 242.66 -66 243 C-66.76677392 244.97606787 -66.76677392 244.97606787 -67.25 247.3125 C-67.44078125 248.09238281 -67.6315625 248.87226563 -67.828125 249.67578125 C-68.02997047 252.40528247 -67.41196151 253.69765978 -66 256 C-67.32 256.66 -68.64 257.32 -70 258 C-69.34 259.65 -68.68 261.3 -68 263 C-68.639375 263.185625 -69.27875 263.37125 -69.9375 263.5625 C-72.42126213 264.94246056 -72.42126213 264.94246056 -72.75 268.625 C-72.8325 269.73875 -72.915 270.8525 -73 272 C-73.66 272 -74.32 272 -75 272 C-75 273.32 -75 274.64 -75 276 C-74.34 276 -73.68 276 -73 276 C-73.70062797 279.15282585 -74.8022619 282.00565474 -76 285 C-76.33993963 286.33166435 -76.67237988 287.66525136 -77 289 C-77.47003521 290.62766477 -77.94975535 292.25255405 -78.4375 293.875 C-78.69917969 294.7515625 -78.96085938 295.628125 -79.23046875 296.53125 C-79.8437826 298.49883554 -80.5341998 300.44233945 -81.25 302.375 C-82.21708099 304.91241091 -82.21708099 304.91241091 -81.4375 307.125 C-81.293125 307.74375 -81.14875 308.3625 -81 309 C-81.98560611 310.34400833 -82.98758315 311.67607028 -84 313 C-84.91681587 316.66726348 -85.24506944 319.40313272 -84 323 C-84.99 323 -85.98 323 -87 323 C-87.33 323.99 -87.66 324.98 -88 326 C-89.62332967 327.38576923 -91.28724465 328.72641268 -93 330 C-93.40089844 329.53207031 -93.80179687 329.06414062 -94.21484375 328.58203125 C-96.31241073 326.7231371 -97.85933373 326.34213829 -100.5625 325.6875 C-102.96875 324.9609375 -102.96875 324.9609375 -105 324 C-106.5625 320.8125 -106.5625 320.8125 -107 318 C-106.34 317.67 -105.68 317.34 -105 317 C-105.04125 316.030625 -105.0825 315.06125 -105.125 314.0625 C-105.11460569 308.9484989 -104.70250894 303.1496325 -101.453125 299.046875 C-99.65843333 296.51886845 -99.6394243 295.00994711 -99.5625 291.9375 C-99.23093108 286.66767052 -97.91608402 282.38153049 -95.9375 277.5078125 C-94.92685503 275.02001704 -94.92685503 275.02001704 -94.5 272.3671875 C-94 270 -94 270 -92 267 C-91.83300768 263.87478167 -91.83300768 263.87478167 -92 261 C-90.68 260.67 -89.36 260.34 -88 260 C-88.33 257.69 -88.66 255.38 -89 253 C-89.66 253 -90.32 253 -91 253 C-91.66 253.99 -92.32 254.98 -93 256 C-94.32 255.67 -95.64 255.34 -97 255 C-97.04125 255.61875 -97.0825 256.2375 -97.125 256.875 C-97.41375 257.57625 -97.7025 258.2775 -98 259 C-101 260.125 -101 260.125 -104 261 C-104.33 261.66 -104.66 262.32 -105 263 C-108.47325181 264.1577506 -111.36067448 264.06866652 -115 264 C-115.33 264.99 -115.66 265.98 -116 267 C-118 268 -120 269 -122 270 C-122.886875 270.886875 -123.77375 271.77375 -124.6875 272.6875 C-125.450625 273.450625 -126.21375 274.21375 -127 275 C-127.99 275 -128.98 275 -130 275 C-130.33 274.34 -130.66 273.68 -131 273 C-131.66 273.99 -132.32 274.98 -133 276 C-134.32 276 -135.64 276 -137 276 C-137.33 276.99 -137.66 277.98 -138 279 C-143.22304424 281.56031581 -148.66412664 283.32619038 -154.25 284.9375 C-157.28798821 285.80774245 -157.28798821 285.80774245 -159 289 C-161.9812093 290.19248372 -163.97786398 289.97140086 -167 289 C-167 289.66 -167 290.32 -167 291 C-167.721875 291.103125 -168.44375 291.20625 -169.1875 291.3125 C-172.03629654 291.83934728 -172.03629654 291.83934728 -174.25 293.5 C-179.13697311 296.1656217 -184.5248874 296 -190 296 C-190.103125 295.278125 -190.20625 294.55625 -190.3125 293.8125 C-190.8482655 290.92721983 -190.8482655 290.92721983 -192.625 288.5625 C-194.3820161 285.28806091 -193.90166968 283.52470877 -193 280 C-192.01 280 -191.02 280 -190 280 C-189.835 279.38125 -189.67 278.7625 -189.5 278.125 C-187.40156018 275.15221025 -185.24842866 275.10731647 -181.77734375 274.4921875 C-181.19082031 274.32976562 -180.60429687 274.16734375 -180 274 C-179.67 273.34 -179.34 272.68 -179 272 C-177.68 272.33 -176.36 272.66 -175 273 C-174.67 272.01 -174.34 271.02 -174 270 C-172.68 270 -171.36 270 -170 270 C-169.67 269.34 -169.34 268.68 -169 268 C-167.35 268.33 -165.7 268.66 -164 269 C-163.67 267.68 -163.34 266.36 -163 265 C-160.36 265.33 -157.72 265.66 -155 266 C-155 264.02 -155 262.04 -155 260 C-154.01 260 -153.02 260 -152 260 C-151.67 260.66 -151.34 261.32 -151 262 C-150.08476562 261.566875 -149.16953125 261.13375 -148.2265625 260.6875 C-146.44378906 259.8521875 -146.44378906 259.8521875 -144.625 259 C-142.84996094 258.1646875 -142.84996094 258.1646875 -141.0390625 257.3125 C-138 256 -138 256 -136 256 C-135.67 255.01 -135.34 254.02 -135 253 C-134.34 253 -133.68 253 -133 253 C-132.67 252.34 -132.34 251.68 -132 251 C-130.6696875 250.7834375 -130.6696875 250.7834375 -129.3125 250.5625 C-125.68760708 249.94695214 -123.15681717 248.86539196 -120 247 C-119.34 246.01 -118.68 245.02 -118 244 C-116.66923011 243.65657551 -115.33568021 243.32380126 -114 243 C-112.9805881 242.01979625 -111.97753644 241.02196992 -111 240 C-110.34 240 -109.68 240 -109 240 C-109 239.34 -109 238.68 -109 238 C-107.68 238.33 -106.36 238.66 -105 239 C-104.608125 238.175 -104.21625 237.35 -103.8125 236.5 C-103.214375 235.675 -102.61625 234.85 -102 234 C-99.4375 233.8125 -99.4375 233.8125 -97 234 C-96.34 233.34 -95.68 232.68 -95 232 C-93.68 232 -92.36 232 -91 232 C-91 231.34 -91 230.68 -91 230 C-90.34 230 -89.68 230 -89 230 C-89 229.34 -89 228.68 -89 228 C-88.071875 227.79375 -87.14375 227.5875 -86.1875 227.375 C-82.15272284 225.63450789 -81.65003137 223.96007528 -80 220 C-79.34 219.34 -78.68 218.68 -78 218 C-78 216.68 -78 215.36 -78 214 C-77.67 213.34 -77.34 212.68 -77 212 C-77.99 211.67 -78.98 211.34 -80 211 C-80 210.34 -80 209.68 -80 209 C-80.556875 208.85304687 -81.11375 208.70609375 -81.6875 208.5546875 C-87.08509024 206.96823361 -90.84703909 204.92279259 -95.078125 201.20703125 C-97.50911805 199.68024903 -99.18310639 199.97664267 -102 200 C-102.474375 199.175 -102.94875 198.35 -103.4375 197.5 C-103.953125 196.675 -104.46875 195.85 -105 195 C-105.969375 195 -106.93875 195 -107.9375 195 C-108.948125 195 -109.95875 195 -111 195 C-112.33333333 193.33333333 -113.66666667 191.66666667 -115 190 C-118.08365871 189.7497843 -118.08365871 189.7497843 -121 190 C-121.66 189.34 -122.32 188.68 -123 188 C-123 187.01 -123 186.02 -123 185 C-124.98 184.01 -124.98 184.01 -127 183 C-127 182.34 -127 181.68 -127 181 C-127.66 181 -128.32 181 -129 181 C-129 181.66 -129 182.32 -129 183 C-131.375 182.75 -131.375 182.75 -134 182 C-135.125 180 -135.125 180 -136 178 C-136.99 177.67 -137.98 177.34 -139 177 C-139 176.34 -139 175.68 -139 175 C-139.928125 175.226875 -140.85625 175.45375 -141.8125 175.6875 C-142.864375 175.790625 -143.91625 175.89375 -145 176 C-146.625 174.625 -146.625 174.625 -148 173 C-148.680625 172.855625 -149.36125 172.71125 -150.0625 172.5625 C-150.701875 172.376875 -151.34125 172.19125 -152 172 C-152.69937532 170.68352881 -153.36729133 169.34977849 -154 168 C-157.53694283 166.82101906 -161.04083595 166.33902433 -164.72265625 165.79296875 C-167 165 -167 165 -168.19921875 162.96484375 C-168.46347656 162.31644531 -168.72773438 161.66804687 -169 161 C-170.80252869 160.29805007 -170.80252869 160.29805007 -173 160 C-176.1875 159.125 -176.1875 159.125 -179 158 C-179.33 157.01 -179.66 156.02 -180 155 C-180.66 155.33 -181.32 155.66 -182 156 C-184 154.75 -184 154.75 -186 153 C-186 151.68 -186 150.36 -186 149 C-186.9075 149.185625 -187.815 149.37125 -188.75 149.5625 C-191.68314324 149.95734621 -193.2644657 149.94691572 -196 149 C-196 148.34 -196 147.68 -196 147 C-197.98 146.67 -199.96 146.34 -202 146 C-202.33 144.68 -202.66 143.36 -203 142 C-205.64 142 -208.28 142 -211 142 C-212.31626692 138.38026598 -213 135.90432869 -213 132 C-214.32 131.34 -215.64 130.68 -217 130 C-216.67 129.01 -216.34 128.02 -216 127 C-215.34 126.67 -214.68 126.34 -214 126 C-213.690625 125.175 -213.38125 124.35 -213.0625 123.5 C-212.711875 122.675 -212.36125 121.85 -212 121 C-210.515 120.505 -210.515 120.505 -209 120 C-208.505 119.01 -208.505 119.01 -208 118 C-207.34 118 -206.68 118 -206 118 C-205.505 117.01 -205.505 117.01 -205 116 C-202.34765625 115.1484375 -202.34765625 115.1484375 -199.0625 114.375 C-197.98097656 114.11460938 -196.89945313 113.85421875 -195.78515625 113.5859375 C-193 113 -193 113 -191 113 C-190.67 112.34 -190.34 111.68 -190 111 C-187.36 111 -184.72 111 -182 111 C-181.67 110.34 -181.34 109.68 -181 109 C-179.02 109 -177.04 109 -175 109 C-175 108.34 -175 107.68 -175 107 C-171.71303767 106.20046862 -170.28976808 105.90341064 -167 107 C-165.04651417 106.46832218 -165.04651417 106.46832218 -163.0625 105.5625 C-159.93447202 104.21847257 -158.60334675 104 -155 104 C-154.01 104.66 -153.02 105.32 -152 106 C-151.7215625 105.0409375 -151.7215625 105.0409375 -151.4375 104.0625 C-150 102 -150 102 -146.8125 101.3125 C-145.554375 101.209375 -144.29625 101.10625 -143 101 C-135.44371653 100.02048177 -128.18527978 98.56617135 -121 96 C-120.01 95.67 -119.02 95.34 -118 95 C-117.67 94.67 -117.34 94.34 -117 94 C-115.515 94.495 -115.515 94.495 -114 95 C-111.98315437 94.38617742 -109.98356483 93.71408334 -108 93 C-106.33871537 92.64080332 -104.67099977 92.31088368 -103 92 C-99.99723874 91.34568209 -96.99864728 90.67289906 -94 90 C-94 90.66 -94 91.32 -94 92 C-93.484375 91.525625 -92.96875 91.05125 -92.4375 90.5625 C-89.30118157 88.55203947 -86.6808109 88.38745378 -83 88 C-81.700625 87.7215625 -81.700625 87.7215625 -80.375 87.4375 C-77.86804081 86.97569173 -75.54338772 86.92733178 -73 87 C-73 86.34 -73 85.68 -73 85 C-69.7 85 -66.4 85 -63 85 C-63 84.34 -63 83.68 -63 83 C-61.02 83 -59.04 83 -57 83 C-57 82.01 -57 81.02 -57 80 C-54.03 80.33 -51.06 80.66 -48 81 C-48 80.34 -48 79.68 -48 79 C-44.535 78.505 -44.535 78.505 -41 78 C-40.80664062 77.33613281 -40.61328125 76.67226562 -40.4140625 75.98828125 C-38.18720749 68.43681747 -38.18720749 68.43681747 -36.875 65.375 C-36.03692874 63.10023514 -35.78658135 61.33209479 -35.5625 58.9375 C-34.99184905 54.94294333 -34.30309667 54.03590015 -32 51 C-32.165 50.175 -32.33 49.35 -32.5 48.5 C-32.665 47.675 -32.83 46.85 -33 46 C-31.625 43.9375 -31.625 43.9375 -30 42 C-28.73956581 37.90132193 -28.26388688 33.59020668 -27.59765625 29.36328125 C-27.40042969 28.58339844 -27.20320312 27.80351563 -27 27 C-26.01 26.505 -26.01 26.505 -25 26 C-24.61866701 24.0085944 -24.28674418 22.00720923 -24 20 C-23.67 19.34 -23.34 18.68 -23 18 C-22.95977609 15.6670134 -22.95679753 13.33293334 -23 11 C-22.01 10.67 -21.02 10.34 -20 10 C-20.04125 9.21625 -20.0825 8.4325 -20.125 7.625 C-20 5 -20 5 -18 3 C-18 2.34 -18 1.68 -18 1 C-16.68 1 -15.36 1 -14 1 C-14 0.34 -14 -0.32 -14 -1 C-8.06357811 -3.30187787 -5.61627783 -2.98006579 0 0 Z M-7 38 C-10.03552101 41.03552101 -9.38928058 44.31784642 -9.55859375 48.46875 C-9.70425781 49.3040625 -9.84992188 50.139375 -10 51 C-10.99 51.66 -11.98 52.32 -13 53 C-13.25015873 56.58357241 -13.25015873 56.58357241 -13 60 C-13.99 60.33 -14.98 60.66 -16 61 C-15.95875 61.78375 -15.9175 62.5675 -15.875 63.375 C-16 66 -16 66 -18 68 C-16.38015531 70.99636794 -16.38015531 70.99636794 -14.375 71.75 C-12.03908883 71.99588539 -10.19171069 71.81896741 -7.875 71.5 C-4 71 -4 71 -2 72 C-2 71.01 -2 70.02 -2 69 C-1.34 69 -0.68 69 0 69 C0 68.34 0 67.68 0 67 C1.32 67.33 2.64 67.66 4 68 C5.16070564 63.74407932 4.9730144 60.29748027 4 56 C3.01 55.34 2.02 54.68 1 54 C-0.1875 50.375 -0.1875 50.375 -1 47 C-1.99 47 -2.98 47 -4 47 C-3.67 44.69 -3.34 42.38 -3 40 C-3.99 40 -4.98 40 -6 40 C-6.33 39.34 -6.66 38.68 -7 38 Z M187 47 C186.5875 47.495 186.175 47.99 185.75 48.5 C183.23177499 50.65847858 181.20624415 50.21374961 178 50 C178 50.66 178 51.32 178 52 C174.57233436 52.85691641 172.37248325 53.01174497 169 52 C168.01 52 167.02 52 166 52 C166 52.66 166 53.32 166 54 C165.24074219 54.04898438 164.48148438 54.09796875 163.69921875 54.1484375 C162.20841797 54.26058594 162.20841797 54.26058594 160.6875 54.375 C159.20830078 54.47941406 159.20830078 54.47941406 157.69921875 54.5859375 C154.78471567 54.83865472 154.78471567 54.83865472 152 57 C150.0625 57.37890625 150.0625 57.37890625 148 57.5625 C145.40222383 57.8035815 143.51908403 58.16030532 141 59 C141 58.34 141 57.68 141 57 C140.01 57.33 139.02 57.66 138 58 C133.91405167 59.1865126 130.23657606 59.14865179 126 59 C125.34 60.65 124.68 62.3 124 64 C122.515 63.505 122.515 63.505 121 63 C120.505 62.01 120.505 62.01 120 61 C117.03 61.66 114.06 62.32 111 63 C111 63.66 111 64.32 111 65 C108.36 64.67 105.72 64.34 103 64 C103 64.66 103 65.32 103 66 C102.30132812 65.97679688 101.60265625 65.95359375 100.8828125 65.9296875 C99.97273438 65.91164063 99.06265625 65.89359375 98.125 65.875 C97.22007812 65.85179688 96.31515625 65.82859375 95.3828125 65.8046875 C92.81193006 65.75675164 92.81193006 65.75675164 91 68 C90.01 67.67 89.02 67.34 88 67 C84.69644917 67.40287205 83.39119721 67.60880279 81 70 C79.865625 69.979375 78.73125 69.95875 77.5625 69.9375 C76.386875 69.958125 75.21125 69.97875 74 70 C73.32517578 70.72896484 73.32517578 70.72896484 72.63671875 71.47265625 C70.28202382 73.66999686 68.42047331 73.40343736 65.25 73.5 C60.04741394 73.80751112 56.61301568 74.64642057 52 77 C51.113125 77.350625 50.22625 77.70125 49.3125 78.0625 C47.14399857 78.9416222 45.07634559 79.92337636 43 81 C43 80.34 43 79.68 43 79 C39.535 79.495 39.535 79.495 36 80 C37.81244981 88.14797875 37.81244981 88.14797875 42 95 C42.71054719 96.98483429 43.36851823 98.98861361 44 101 C44.91542771 103.60030583 45.88882146 106.17582115 46.875 108.75 C47.24044922 109.75740234 47.24044922 109.75740234 47.61328125 110.78515625 C49.12875372 114.70877498 49.12875372 114.70877498 52.1953125 117.453125 C53.08863281 117.72382813 53.08863281 117.72382813 54 118 C53.67 118.99 53.34 119.98 53 121 C53.38932856 123.14255793 53.38932856 123.14255793 54 125 C54.99 125 55.98 125 57 125 C56.01 125.495 56.01 125.495 55 126 C55 126.66 55 127.32 55 128 C55.66 128 56.32 128 57 128 C57.66 129.98 58.32 131.96 59 134 C61.64 133.67 64.28 133.34 67 133 C67 132.34 67 131.68 67 131 C69.475 130.505 69.475 130.505 72 130 C72 129.01 72 128.02 72 127 C72.639375 126.87625 73.27875 126.7525 73.9375 126.625 C74.9584375 126.315625 74.9584375 126.315625 76 126 C76.33 125.34 76.66 124.68 77 124 C79.30965848 122.94647157 81.6429774 121.94280904 84 121 C84 120.34 84 119.68 84 119 C85.32 119 86.64 119 88 119 C88 117.35 88 115.7 88 114 C88.928125 114.226875 89.85625 114.45375 90.8125 114.6875 C93.94724406 115.37258338 93.94724406 115.37258338 95.6875 113.625 C96.120625 113.08875 96.55375 112.5525 97 112 C97.99 111.67 98.98 111.34 100 111 C100.680625 110.319375 101.36125 109.63875 102.0625 108.9375 C102.701875 108.298125 103.34125 107.65875 104 107 C104.66 107 105.32 107 106 107 C106.556875 106.21625 107.11375 105.4325 107.6875 104.625 C110.56096533 101.36322854 112.86886695 101.0710345 117 100 C117.66 99.01 118.32 98.02 119 97 C120.32594105 96.63837971 121.65938457 96.30271961 123 96 C123.495 95.01 123.495 95.01 124 94 C124.66 93.855625 125.32 93.71125 126 93.5625 C126.66 93.376875 127.32 93.19125 128 93 C128.33 92.01 128.66 91.02 129 90 C130.33333333 89.66666667 131.66666667 89.33333333 133 89 C133.33 88.01 133.66 87.02 134 86 C135.32303717 85.6278958 136.65737935 85.29369827 138 85 C138.495 84.01 138.495 84.01 139 83 C141.0625 82.375 141.0625 82.375 143 82 C143 81.34 143 80.68 143 80 C143.63808594 79.82984375 144.27617187 79.6596875 144.93359375 79.484375 C145.75988281 79.24203125 146.58617187 78.9996875 147.4375 78.75 C148.67306641 78.40195313 148.67306641 78.40195313 149.93359375 78.046875 C150.61550781 77.70140625 151.29742187 77.3559375 152 77 C152.67600146 74.99433382 152.67600146 74.99433382 153 73 C155.3125 71.875 155.3125 71.875 158 71 C160.68240937 69.86200814 162.00188607 68.99793711 164 66.8125 C164.66 66.214375 165.32 65.61625 166 65 C168.25 65.25 168.25 65.25 170 66 C170 65.34 170 64.68 170 64 C171.32 63.34 172.64 62.68 174 62 C173.34 62 172.68 62 172 62 C172 61.01 172 60.02 172 59 C172.99 59.33 173.98 59.66 175 60 C176.54166642 58.62514468 176.54166642 58.62514468 178 57 C178 56.34 178 55.68 178 55 C178.556875 55.2475 179.11375 55.495 179.6875 55.75 C182.21328263 56.28579828 182.21328263 56.28579828 184.5625 54.125 C185.366875 53.42375 186.17125 52.7225 187 52 C187.99 51.67 188.98 51.34 190 51 C189.67 49.68 189.34 48.36 189 47 C188.34 47 187.68 47 187 47 Z M11 85 C10.67 85.66 10.34 86.32 10 87 C7.97456444 87.25719817 5.94649776 87.50842122 3.91015625 87.65625 C1.76477844 87.85476212 1.76477844 87.85476212 0 90 C-3.5 91.1875 -3.5 91.1875 -7 92 C-7.66 91.67 -8.32 91.34 -9 91 C-11.3400417 91.28241883 -13.67504723 91.61250787 -16 92 C-16.33 92.99 -16.66 93.98 -17 95 C-17.7425 94.9175 -18.485 94.835 -19.25 94.75 C-22.07169861 94.77306403 -22.07169861 94.77306403 -24.1875 96.5625 C-26.4597896 99.61833774 -27.12285811 102.30347347 -28 106 C-28.33 107.03125 -28.66 108.0625 -29 109.125 C-30.35381777 113.71118889 -30.7785275 118.471266 -31.33984375 123.20703125 C-32 126 -32 126 -35 128 C-35.2502157 131.08365871 -35.2502157 131.08365871 -35 134 C-35.99 134.495 -35.99 134.495 -37 135 C-37 137.97 -37 140.94 -37 144 C-38.98 144.495 -38.98 144.495 -41 145 C-40.34 145.33 -39.68 145.66 -39 146 C-39.45580991 149.55531726 -40.22656841 152.76741695 -41.4375 156.125 C-43.35473449 161.62295186 -44.17341151 167.25277886 -45 173 C-45.66 173 -46.32 173 -47 173 C-47.91692961 175.75078884 -48.10886083 177.35948913 -48.0625 180.1875 C-48.0315625 182.0746875 -48.0315625 182.0746875 -48 184 C-49.485 184.495 -49.485 184.495 -51 185 C-51.06058594 185.67546875 -51.12117187 186.3509375 -51.18359375 187.046875 C-51.26738281 187.93890625 -51.35117188 188.8309375 -51.4375 189.75 C-51.51871094 190.63171875 -51.59992188 191.5134375 -51.68359375 192.421875 C-52 195 -52 195 -52.53515625 197.078125 C-53.15672741 199.31843358 -53.15672741 199.31843358 -53 203 C-50.26868321 205.26754632 -50.26868321 205.26754632 -47.625 204.8125 C-44.71464769 203.91167666 -42.47769114 202.76977938 -40 201 C-40 200.34 -40 199.68 -40 199 C-38.68 199 -37.36 199 -36 199 C-35.34 198.01 -34.68 197.02 -34 196 C-31.77686718 194.53908415 -29.48654342 193.26538732 -27.15234375 191.9921875 C-23.45600562 190.14879628 -23.45600562 190.14879628 -21 187 C-19.01363702 186.29373761 -17.01151741 185.63106429 -15 185 C-13.65278717 184.36184656 -12.31252882 183.70674629 -11 183 C-11 182.34 -11 181.68 -11 181 C-8.525 180.505 -8.525 180.505 -6 180 C-5.505 178.515 -5.505 178.515 -5 177 C-2.69 176.67 -0.38 176.34 2 176 C2.33 174.35 2.66 172.7 3 171 C3.72832031 170.89558594 4.45664063 170.79117188 5.20703125 170.68359375 C8.24984044 169.93885024 10.12540506 168.84161177 12.6875 167.0625 C13.45449219 166.53785156 14.22148437 166.01320313 15.01171875 165.47265625 C17.08721895 164.01101956 17.08721895 164.01101956 19 162 C21.31765729 161.28072705 23.65095874 160.6090107 26 160 C26 159.34 26 158.68 26 158 C26.639375 157.87625 27.27875 157.7525 27.9375 157.625 C28.618125 157.41875 29.29875 157.2125 30 157 C30.33 156.34 30.66 155.68 31 155 C32.64363134 154.27840576 34.31050386 153.60648579 36 153 C36 152.01 36 151.02 36 150 C36.66 150 37.32 150 38 150 C38 149.34 38 148.68 38 148 C39.98 148.495 39.98 148.495 42 149 C42.33 146.69 42.66 144.38 43 142 C41.515 141.01 41.515 141.01 40 140 C40.33 138.68 40.66 137.36 41 136 C39.68 135.34 38.36 134.68 37 134 C37 132.68 37 131.36 37 130 C36.34 129.67 35.68 129.34 35 129 C35 127.35 35 125.7 35 124 C34.34 123.67 33.68 123.34 33 123 C32.375 120.9375 32.375 120.9375 32 119 C31.34 119 30.68 119 30 119 C30 117.35 30 115.7 30 114 C28.35 113.34 26.7 112.68 25 112 C25.20625 111.13375 25.4125 110.2675 25.625 109.375 C26.04047622 105.63571398 25.39666276 103.45057859 24 100 C22.68 100 21.36 100 20 100 C20.33 99.01 20.66 98.02 21 97 C20.3212539 94.7414624 20.3212539 94.7414624 19.1875 92.4375 C18.65189453 91.25994141 18.65189453 91.25994141 18.10546875 90.05859375 C17.05235252 87.86006439 17.05235252 87.86006439 15 86 C12.93125966 85.3574765 12.93125966 85.3574765 11 85 Z M-55 100 C-55.556875 100.495 -56.11375 100.99 -56.6875 101.5 C-59.38162983 103.24754367 -60.85375007 103.26218749 -64 103 C-64.33 103.99 -64.66 104.98 -65 106 C-65.61875 105.814375 -66.2375 105.62875 -66.875 105.4375 C-69.04160178 104.76313824 -69.04160178 104.76313824 -71 106 C-73.27685912 105.99135917 -75.53546303 105.86951278 -77.80859375 105.7421875 C-80.56002229 106.06588498 -81.1494759 107.02878955 -83 109 C-85.32156597 109.40729228 -87.6568787 109.74438677 -90 110 C-90.66 110.33 -91.32 110.66 -92 111 C-93.99960012 111.039992 -96.00047242 111.04346799 -98 111 C-98 111.66 -98 112.32 -98 113 C-99.299375 112.938125 -100.59875 112.87625 -101.9375 112.8125 C-106.37205594 112.79853289 -109.8705726 113.74370791 -114.00390625 115.26953125 C-117.29544547 116.47406713 -120.6051954 116.94359934 -124.0625 117.4375 C-126.79931147 117.96157028 -128.55870495 118.73997675 -131 120 C-135.59375 121.203125 -135.59375 121.203125 -138 120 C-138.99 120.495 -138.99 120.495 -140 121 C-143.59808195 121.52472028 -147.20314945 121.96226925 -150.8125 122.40234375 C-154.08113372 122.70467778 -154.08113372 122.70467778 -156 125 C-157.98723268 125.70381157 -159.98777953 126.3711811 -162 127 C-162.66 127.33 -163.32 127.66 -164 128 C-164.33 127.01 -164.66 126.02 -165 125 C-165.99 125.66 -166.98 126.32 -168 127 C-169.9375 127.30859375 -169.9375 127.30859375 -172 127.4375 C-174.63019316 127.71309009 -175.78536739 127.85244008 -178 129.375 C-179.26204871 131.10782213 -179.26204871 131.10782213 -179 134 C-177.68 134.33 -176.36 134.66 -175 135 C-175 135.66 -175 136.32 -175 137 C-174.05125 137.103125 -173.1025 137.20625 -172.125 137.3125 C-169 138 -169 138 -167 141 C-165.32905193 141.4344465 -163.65723661 141.86593061 -161.98046875 142.27734375 C-159.64512852 143.12948959 -158.11698397 144.31340953 -156.1875 145.875 C-151.77196853 149.40051241 -145.81817219 153 -140 153 C-140 153.99 -140 154.98 -140 156 C-138.948125 156.185625 -138.948125 156.185625 -137.875 156.375 C-134.82343613 157.03838345 -131.94659062 157.97211955 -129 159 C-129 159.66 -129 160.32 -129 161 C-127.27921959 161.8709379 -125.54793677 162.72114558 -123.8125 163.5625 C-122.36810547 164.27599609 -122.36810547 164.27599609 -120.89453125 165.00390625 C-117.72281223 166.0953885 -116.16301775 165.96567452 -113 165 C-113.495 166.485 -113.495 166.485 -114 168 C-110.6659053 170.19097652 -107.95820859 171.43454163 -104 172 C-103.67 172.99 -103.34 173.98 -103 175 C-101.36368108 176.04892238 -99.69514137 177.04906703 -98 178 C-97.34 178.66 -96.68 179.32 -96 180 C-95.01 180.309375 -94.02 180.61875 -93 180.9375 C-90 182 -90 182 -88 185 C-85.84494418 185.721322 -85.84494418 185.721322 -83.4375 186.0625 C-80.99609375 186.47265625 -80.99609375 186.47265625 -79 187 C-78.67 187.66 -78.34 188.32 -78 189 C-76.66923011 189.34342449 -75.33568021 189.67619874 -74 190 C-73.34 190.66 -72.68 191.32 -72 192 C-71.814375 191.0409375 -71.814375 191.0409375 -71.625 190.0625 C-71.41875 189.381875 -71.2125 188.70125 -71 188 C-70.34 187.67 -69.68 187.34 -69 187 C-70.485 186.505 -70.485 186.505 -72 186 C-70.68 184.02 -69.36 182.04 -68 180 C-68.66 180 -69.32 180 -70 180 C-69 178 -69 178 -66 176 C-65.74969023 173.41619823 -65.74969023 173.41619823 -66 171 C-65.34 170.67 -64.68 170.34 -64 170 C-64.66 170 -65.32 170 -66 170 C-65.67 169.34 -65.34 168.68 -65 168 C-64.95977609 165.6670134 -64.95679753 163.33293334 -65 161 C-64.34 161 -63.68 161 -63 161 C-63 159.35 -63 157.7 -63 156 C-62.34 156 -61.68 156 -61 156 C-60.5359375 154.6078125 -60.5359375 154.6078125 -60.0625 153.1875 C-59.375 151.125 -58.6875 149.0625 -58 147 C-58.66 146.67 -59.32 146.34 -60 146 C-60 146.66 -60 147.32 -60 148 C-60.66 148 -61.32 148 -62 148 C-61.67 147.01 -61.34 146.02 -61 145 C-60.34 144.67 -59.68 144.34 -59 144 C-58.29508733 141.67793475 -57.62787571 139.34406932 -57 137 C-56.67 136.67 -56.34 136.34 -56 136 C-55.76472227 133.65012738 -55.58613583 131.29443961 -55.4375 128.9375 C-55.31181641 127.00197266 -55.31181641 127.00197266 -55.18359375 125.02734375 C-55.12300781 124.02832031 -55.06242187 123.02929688 -55 122 C-53.02 121.34 -51.04 120.68 -49 120 C-49.20625 118.96875 -49.4125 117.9375 -49.625 116.875 C-50.01771917 112.81690189 -49.41596501 110.74814268 -48 107 C-48 105.68 -48 104.36 -48 103 C-50.31 102.01 -52.62 101.02 -55 100 Z M-180 129 C-179 131 -179 131 -179 131 Z M47.5625 166.6875 C46.716875 167.450625 45.87125 168.21375 45 169 C43.3603125 170.051875 43.3603125 170.051875 41.6875 171.125 C40.3571875 172.053125 40.3571875 172.053125 39 173 C39 173.66 39 174.32 39 175 C37.68 174.67 36.36 174.34 35 174 C34.67128906 174.89525391 34.67128906 174.89525391 34.3359375 175.80859375 C32.56227187 178.71802773 30.65060129 179.54158782 27.625 181.0625 C23.55330418 183.12777265 23.55330418 183.12777265 19.8359375 185.74609375 C19.23007813 186.15988281 18.62421875 186.57367188 18 187 C17.01 186.67 16.02 186.34 15 186 C12.41222792 189.05580974 12.41222792 189.05580974 12 193 C10.8553125 192.9071875 10.8553125 192.9071875 9.6875 192.8125 C6.97949442 192.70608662 6.97949442 192.70608662 5.5625 194.4375 C3.31006578 196.68993422 1.0842033 196.65731074 -2 197 C-2.33 197.99 -2.66 198.98 -3 200 C-5.0625 201.1875 -5.0625 201.1875 -7 202 C-7 202.66 -7 203.32 -7 204 C-8.485 203.505 -8.485 203.505 -10 203 C-10.33 204.32 -10.66 205.64 -11 207 C-11.71027344 207.12117188 -12.42054688 207.24234375 -13.15234375 207.3671875 C-14.53099609 207.61855469 -14.53099609 207.61855469 -15.9375 207.875 C-17.31228516 208.11863281 -17.31228516 208.11863281 -18.71484375 208.3671875 C-19.46894531 208.57601562 -20.22304687 208.78484375 -21 209 C-21.33 209.66 -21.66 210.32 -22 211 C-22.66 211 -23.32 211 -24 211 C-24.33 211.99 -24.66 212.98 -25 214 C-26.485 214.495 -26.485 214.495 -28 215 C-27.67 216.32 -27.34 217.64 -27 219 C-26.443125 219.0825 -25.88625 219.165 -25.3125 219.25 C-22.30743682 220.22461509 -20.42745178 222.00824469 -18 224 C-17.01 224.33 -16.02 224.66 -15 225 C-14.67 225.99 -14.34 226.98 -14 228 C-12.02 228 -10.04 228 -8 228 C-8 228.66 -8 229.32 -8 230 C-4.77208445 232.1519437 -3.71599191 232.20086443 0 232 C0.33 233.32 0.66 234.64 1 236 C2.11375 236.0825 3.2275 236.165 4.375 236.25 C8 237 8 237 9.4375 239.0625 C9.623125 239.701875 9.80875 240.34125 10 241 C10.99 241 11.98 241 13 241 C13 241.66 13 242.32 13 243 C13.9075 243.04125 14.815 243.0825 15.75 243.125 C20.05608906 244.28433167 20.66813506 246.34674492 23 250 C24.32 250 25.64 250 27 250 C27.33 250.33 27.66 250.66 28 251 C29.66617115 251.04063832 31.33388095 251.042721 33 251 C33 251.66 33 252.32 33 253 C33.66 253 34.32 253 35 253 C35.33 254.65 35.66 256.3 36 258 C36.66 258 37.32 258 38 258 C38 257.34 38 256.68 38 256 C39.32 255.67 40.64 255.34 42 255 C42.226875 255.804375 42.45375 256.60875 42.6875 257.4375 C43.120625 258.283125 43.55375 259.12875 44 260 C46.54775306 260.89386164 46.54775306 260.89386164 49 261 C49.33 261.99 49.66 262.98 50 264 C52.00352424 264.45982524 54.00804846 264.91618631 56.01953125 265.33984375 C58.98317531 266.3277251 60.11112079 268.57987352 62 271 C64.00228451 271.92948586 65.98195559 272.60119225 68.09765625 273.2265625 C70.3025337 274.12300138 71.36852759 275.29356805 73 277 C74.99180409 278.01622658 76.99152635 279.01712992 79 280 C80.66666667 281.66666667 82.33333333 283.33333333 84 285 C84 284.01 84 283.02 84 282 C84.66 282 85.32 282 86 282 C86 283.65 86 285.3 86 287 C86.99 286.34 87.98 285.68 89 285 C89.33 285.66 89.66 286.32 90 287 C91.65 286.67 93.3 286.34 95 286 C95 286.99 95 287.98 95 289 C94.34 289 93.68 289 93 289 C93 289.99 93 290.98 93 292 C94.0725 292.268125 95.145 292.53625 96.25 292.8125 C99.65075686 293.88940634 101.25318758 294.91621127 104 297 C105.32 297 106.64 297 108 297 C108.66 298.32 109.32 299.64 110 301 C110.33 300.34 110.66 299.68 111 299 C112.32 299 113.64 299 115 299 C115.99 301.475 115.99 301.475 117 304 C117.66 304 118.32 304 119 304 C119 304.66 119 305.32 119 306 C120.2065625 306.185625 120.2065625 306.185625 121.4375 306.375 C122.283125 306.58125 123.12875 306.7875 124 307 C124.33 307.66 124.66 308.32 125 309 C125.99 308.67 126.98 308.34 128 308 C128 306.68 128 305.36 128 304 C127.34 303.67 126.68 303.34 126 303 C125.26924352 300.6859378 124.59861742 298.35171131 124 296 C123.01 296 122.02 296 121 296 C120.48653595 293.43267974 119.99012682 290.91509065 119.6875 288.3125 C119.460625 287.549375 119.23375 286.78625 119 286 C117.6846659 285.29848848 116.34882408 284.63474075 115 284 C113.1875 281.625 113.1875 281.625 112 279 C112.3125 276.6875 112.3125 276.6875 113 275 C112.278125 274.566875 111.55625 274.13375 110.8125 273.6875 C105.90459271 268.99772192 103.5324231 262.4576107 101.875 255.9375 C101.25349587 252.70744585 101.25349587 252.70744585 98 251 C96.8125 247.375 96.8125 247.375 96 244 C95.34 244 94.68 244 94 244 C91.85297972 239.99096213 90.57380779 235.78176728 89.1953125 231.4609375 C87.83017819 228.65036687 86.89079169 228.02810583 84 227 C84 225 84 225 86 223 C84.68 223 83.36 223 82 223 C81.505 218.545 81.505 218.545 81 214 C79.824375 213.6596875 79.824375 213.6596875 78.625 213.3125 C76 212 76 212 74.8125 209.8125 C74.18416628 207.63749867 73.61158662 205.44634649 73.0625 203.25 C72.711875 202.1775 72.36125 201.105 72 200 C70.515 199.505 70.515 199.505 69 199 C69 196.69 69 194.38 69 192 C68.34 192 67.68 192 67 192 C66.505 190.515 66.505 190.515 66 189 C65.34 189 64.68 189 64 189 C63.94392578 188.06027344 63.94392578 188.06027344 63.88671875 187.1015625 C63.82097656 186.28429687 63.75523437 185.46703125 63.6875 184.625 C63.62949219 183.81289062 63.57148438 183.00078125 63.51171875 182.1640625 C63.17009472 179.62078662 63.17009472 179.62078662 60 178 C59.505 176.515 59.505 176.515 59 175 C58.34 175 57.68 175 57 175 C57.33 174.01 57.66 173.02 58 172 C57.34 172 56.68 172 56 172 C56.33 171.01 56.66 170.02 57 169 C56.34 169 55.68 169 55 169 C55 168.01 55 167.02 55 166 C51.64763742 164.85061854 50.54905731 164.6198834 47.5625 166.6875 Z " fill="#EEEEEE" transform="translate(218,5)"/>
<path d="M0 0 C0.33 0.66 0.66 1.32 1 2 C0.34 1.67 -0.32 1.34 -1 1 C-0.67 0.67 -0.34 0.34 0 0 Z " fill="#F4F4F4" transform="translate(117,333)"/>
<path d="M0 0 C0.33 0.66 0.66 1.32 1 2 C0.34 1.67 -0.32 1.34 -1 1 C-0.67 0.67 -0.34 0.34 0 0 Z " fill="#E8E8E8" transform="translate(96,250)"/>
<path d="" fill="#F4F4F4" transform="translate(0,0)"/>
<path d="" fill="#FFFFFF" transform="translate(0,0)"/>
<path d="" fill="#FFFFFF" transform="translate(0,0)"/>
</svg>
